<?xml version="1.0" encoding="utf-8"?>
<!-- Generator: Adobe Illustrator 23.0.5, SVG Export Plug-In . SVG Version: 6.00 Build 0)  -->
<svg version="1.1" xmlns="http://www.w3.org/2000/svg" xmlns:xlink="http://www.w3.org/1999/xlink" x="0px" y="0px"
	 viewBox="0 0 750 650.35" style="enable-background:new 0 0 750 650.35;" xml:space="preserve">
<style type="text/css">
	.st0{clip-path:url(#XMLID_3_);fill:#F3E5F5;}
	.st1{opacity:0.8;clip-path:url(#XMLID_3_);}
	.st2{opacity:0.8;}
	.st3{clip-path:url(#XMLID_5_);fill:#A9A9A9;}
	.st4{clip-path:url(#XMLID_5_);fill:url(#SVGID_1_);}
	.st5{clip-path:url(#XMLID_5_);fill:url(#SVGID_2_);}
	.st6{clip-path:url(#XMLID_5_);fill:url(#SVGID_3_);}
	.st7{clip-path:url(#XMLID_5_);fill:url(#SVGID_4_);}
	.st8{clip-path:url(#XMLID_5_);fill:url(#SVGID_5_);}
	.st9{fill:url(#SVGID_6_);}
	.st10{clip-path:url(#XMLID_7_);fill:#FFCDD2;}
	.st11{clip-path:url(#XMLID_7_);fill:url(#SVGID_7_);}
	.st12{clip-path:url(#XMLID_7_);fill:url(#SVGID_8_);}
	.st13{clip-path:url(#XMLID_7_);fill:url(#SVGID_9_);}
	.st14{clip-path:url(#XMLID_7_);fill:url(#SVGID_10_);}
	.st15{clip-path:url(#XMLID_7_);}
	.st16{clip-path:url(#XMLID_9_);fill:url(#SVGID_11_);}
	.st17{clip-path:url(#XMLID_9_);fill:url(#SVGID_12_);}
	.st18{fill:url(#SVGID_13_);}
	.st19{clip-path:url(#XMLID_3_);fill:url(#SVGID_14_);}
	.st20{clip-path:url(#XMLID_3_);fill:url(#SVGID_15_);}
</style>
<g id="BACKGROUND">
	<g>
		<defs>
			<rect id="XMLID_60_" width="750" height="650.35"/>
		</defs>
		<linearGradient id="XMLID_2_" gradientUnits="userSpaceOnUse" x1="1088.8315" y1="-341.6574" x2="464.0756" y2="241.9632">
			<stop  offset="0" style="stop-color:#A2A2A2"/>
			<stop  offset="1" style="stop-color:#FFFFFF;stop-opacity:0"/>
		</linearGradient>
		<use xlink:href="#XMLID_60_"  style="overflow:visible;fill:url(#XMLID_2_);"/>
		<clipPath id="XMLID_3_">
			<use xlink:href="#XMLID_60_"  style="overflow:visible;"/>
		</clipPath>
		<rect x="-31.57" y="-70.49" class="st0" width="813.13" height="791.33"/>
		<g class="st1">
			<defs>
				<path id="XMLID_67_" class="st2" d="M674.49,114.64c90.46-88.58,212,153.95,252.73,297.61
					c55.4,195.4,149.86,129.14,221.79,155.38c95.38,34.79,67.18,189.45-60.23,195.74c-254.08,12.54-254.85,362.58-448.2,206.88
					S399.45,423.69,521.62,382.19S609.03,178.76,674.49,114.64z"/>
			</defs>
			
				<linearGradient id="XMLID_4_" gradientUnits="userSpaceOnUse" x1="872.4689" y1="836.8332" x2="835.2717" y2="191.1868" gradientTransform="matrix(0.9962 0.087 -0.087 0.9962 25.8894 -49.0543)">
				<stop  offset="0" style="stop-color:#BD58A0"/>
				<stop  offset="1" style="stop-color:#FFC864"/>
			</linearGradient>
			<use xlink:href="#XMLID_67_"  style="overflow:visible;fill:url(#XMLID_4_);"/>
			<clipPath id="XMLID_5_">
				<use xlink:href="#XMLID_67_"  style="overflow:visible;"/>
			</clipPath>
			<polygon class="st3" points="1265.55,1185.75 355.99,1082.43 431.49,-42.04 1341.05,61.28 			"/>
			
				<linearGradient id="SVGID_1_" gradientUnits="userSpaceOnUse" x1="922.0438" y1="909.2009" x2="698.5986" y2="556.3212" gradientTransform="matrix(0.9962 0.087 -0.087 0.9962 25.8894 -49.0543)">
				<stop  offset="0" style="stop-color:#A2A2A2"/>
				<stop  offset="1" style="stop-color:#FFFFFF;stop-opacity:0"/>
			</linearGradient>
			<path class="st4" d="M499.11,764.2c38.98,94.9,126.35-5.85,104.65-114.99c-21.7-109.14,91-27.01,133.38-73.22
				c55.38-60.38,69.37-416.68,165.75-233.76c0,0-69.68-290.54-71.75-290.33c-2.06,0.2-180.68-26.75-180.68-26.75L522.88,99.99
				c0,0-124.45,232.55-130.21,239.89c-5.77,7.35-49.9,225.01-52.75,235.36c-2.85,10.34,23.08,206.64,23.08,206.64
				s48.48,100.18,53.39,103.41"/>
			
				<linearGradient id="SVGID_2_" gradientUnits="userSpaceOnUse" x1="659.1414" y1="650.2186" x2="552.8213" y2="357.1569" gradientTransform="matrix(0.9962 0.087 -0.087 0.9962 25.8894 -49.0543)">
				<stop  offset="0" style="stop-color:#A2A2A2"/>
				<stop  offset="1" style="stop-color:#FFFFFF;stop-opacity:0"/>
			</linearGradient>
			<path class="st5" d="M463.11,635.36c-17.64-84.13,7.15-132.09,58.27-118.9c51.12,13.19,68.04,28.45,86.43-24.13
				c18.4-52.58,27.05-52.94,57.48-57.03c35.86-4.82,58.28-26.53,56.27-72.06c-1.63-36.85-31.82-50.95-53.68-99.44
				c-14.21-31.52-34.94-124.21,24.57-162.32l-61.84-39.14l-121.18,47.94l-90.55,96.57L376.74,315.4L361.8,431.05l27.39,141.79"/>
			
				<linearGradient id="SVGID_3_" gradientUnits="userSpaceOnUse" x1="563.0671" y1="553.9982" x2="535.507" y2="75.6274" gradientTransform="matrix(0.9962 0.087 -0.087 0.9962 25.8894 -49.0543)">
				<stop  offset="0" style="stop-color:#BD58A0"/>
				<stop  offset="1" style="stop-color:#FFC864"/>
			</linearGradient>
			<path class="st6" d="M692.45,101.48c-56.17,43.39-51.7,158.57-13.71,204.22c37.99,45.65,45.36,107.83-25.53,115.77
				c-70.89,7.95-30.52,115.21-115.1,81.6c-84.58-33.61-84.74,75.71-76.01,159.38l-112.95-119.5l59.28-256.89l146.08-133.35
				L677.32,6.86l67.53-13.3"/>
			
				<linearGradient id="SVGID_4_" gradientUnits="userSpaceOnUse" x1="734.649" y1="445.3355" x2="421.7546" y2="154.6462" gradientTransform="matrix(0.9962 0.087 -0.087 0.9962 25.8894 -49.0543)">
				<stop  offset="0" style="stop-color:#FFFFFF"/>
				<stop  offset="1" style="stop-color:#FFFFFF;stop-opacity:0"/>
			</linearGradient>
			<path class="st7" d="M692.45,101.48c-56.17,43.39-51.7,158.57-13.71,204.22c37.99,45.65,45.36,107.83-25.53,115.77
				c-70.89,7.95-30.52,115.21-115.1,81.6c-84.58-33.61-84.74,75.71-76.01,159.38l-112.95-119.5l59.28-256.89l146.08-133.35
				L677.32,6.86l67.53-13.3"/>
			
				<linearGradient id="SVGID_5_" gradientUnits="userSpaceOnUse" x1="640.663" y1="626.0211" x2="514.4969" y2="292.778" gradientTransform="matrix(0.9962 0.087 -0.087 0.9962 25.8894 -49.0543)">
				<stop  offset="0" style="stop-color:#A2A2A2"/>
				<stop  offset="1" style="stop-color:#FFFFFF;stop-opacity:0"/>
			</linearGradient>
			<path class="st8" d="M454.89,522.54c11.43-170.29,142.81-94.32,175.69-144.96c25.51-39.3-17.52-68.27,11.38-210.49
				c28.66-141.05-122.19-20.78-122.19-20.78l-131.03,161.6l-28.48,69.63"/>
		</g>
		<g class="st1">
			
				<linearGradient id="SVGID_6_" gradientUnits="userSpaceOnUse" x1="627.6611" y1="-628.4056" x2="1081.4166" y2="-414.9318" gradientTransform="matrix(0 -1 1 0 617.776 1454.6814)">
				<stop  offset="0" style="stop-color:#A2A2A2"/>
				<stop  offset="1" style="stop-color:#FFFFFF;stop-opacity:0"/>
			</linearGradient>
			<path class="st9" d="M-18.27,717.57c64.24,30.81,92.18-16.41,106.28-43.52s14.93-58.4,92.09-72.43
				c77.16-14.03,130.43-100.56,65.63-190.02L-4.91,518.54l-31.53,125.44"/>
			<g>
				<defs>
					<path id="XMLID_64_" d="M-114.04,560.98C-39.35,787.46,51.92,735.87,78.57,662.15c26.65-73.72,73.31-70.87,121.82-85.54
						c61.86-18.71,93.27-116.5,32.62-180.88c-51.25-54.39-133.95-36.16-149.37-140.71C59.49,91.21-70.95,66.11-114.04,180.75
						C-151.3,279.85-146.01,464.05-114.04,560.98z"/>
				</defs>
				
					<linearGradient id="XMLID_6_" gradientUnits="userSpaceOnUse" x1="1339.4897" y1="-768.4913" x2="799.6608" y2="-462.8655" gradientTransform="matrix(0 -1 1 0 617.776 1454.6814)">
					<stop  offset="0" style="stop-color:#27BDB5"/>
					<stop  offset="1" style="stop-color:#FFF933"/>
				</linearGradient>
				<use xlink:href="#XMLID_64_"  style="overflow:visible;fill:url(#XMLID_6_);"/>
				<clipPath id="XMLID_7_">
					<use xlink:href="#XMLID_64_"  style="overflow:visible;"/>
				</clipPath>
				
					<rect x="-317.94" y="129.19" transform="matrix(6.123234e-17 -1 1 6.123234e-17 -339.0152 490.9685)" class="st10" width="787.83" height="571.61"/>
				<linearGradient id="SVGID_7_" gradientUnits="userSpaceOnUse" x1="157.2228" y1="453.6216" x2="-127.8703" y2="438.0308">
					<stop  offset="0" style="stop-color:#FFFFFF"/>
					<stop  offset="1" style="stop-color:#FFFFFF;stop-opacity:0"/>
				</linearGradient>
				<path class="st11" d="M-82.62,114.74c-65.42,102.35-51.66,221.62-16.17,179.73c39.69-46.85,86.73,14.65,39.69,74.25
					s-38.22,128.23-8.82,158.07c46.31,47-25.73,154.88,85.26,233.27c110.99,78.39-161.64,85.09-161.64,85.09l-109.58-296.24
					l38.96-463.81l115.4-53.54"/>
				
					<linearGradient id="SVGID_8_" gradientUnits="userSpaceOnUse" x1="1107.9333" y1="-334.0615" x2="895.7556" y2="-537.0676" gradientTransform="matrix(0 -1 1 0 617.776 1454.6814)">
					<stop  offset="0" style="stop-color:#A2A2A2"/>
					<stop  offset="1" style="stop-color:#FFFFFF;stop-opacity:0"/>
				</linearGradient>
				<path class="st12" d="M58.75,487.99c45.29,59.69,80.71-1.37,107.61-15.85c16.04-8.63,40.99-15.33,53.83,8.63
					c8.48,15.83,7.85,42.56-2.95,68.14l28.94-27.85l6.08-68.34c0,0-49.22-65.46-55.86-65.46c-6.64,0-77.25-3.6-77.25-3.6
					l-34.47,50.36l-10.51,25.18L58.75,487.99z"/>
				
					<linearGradient id="SVGID_9_" gradientUnits="userSpaceOnUse" x1="30.6827" y1="915.2851" x2="251.4356" y2="631.7696" gradientTransform="matrix(0 1 -1 0 847.0985 144.2137)">
					<stop  offset="0" style="stop-color:#A2A2A2"/>
					<stop  offset="1" style="stop-color:#FFFFFF;stop-opacity:0"/>
				</linearGradient>
				<path class="st13" d="M0.97,116.81c35.21,25.76,56.93,89.15,45.29,167.32C32.7,375.15,7.38,490.87,82.64,505.74
					c0,0,74.62-164.53,78.08-169.19c3.46-4.66,11.52-152.18,11.52-152.18L99.69,83.77L0.97,55.81l-32.93,18.64"/>
				
					<linearGradient id="SVGID_10_" gradientUnits="userSpaceOnUse" x1="1269.4613" y1="-494.3259" x2="990.7206" y2="-393.5343" gradientTransform="matrix(0 -1 1 0 617.776 1454.6814)">
					<stop  offset="0" style="stop-color:#27BDB5"/>
					<stop  offset="1" style="stop-color:#FFF933"/>
				</linearGradient>
				<path class="st14" d="M159.63,587.11c92.09-26.49,88.22-125.77,44.02-145.77c-46.61-21.1-89.99,98.37-137.21,55.61
					c-28.21-25.54-21.98-83.12-10.51-169.42c6.88-51.8,22.95-168.34-54.95-210.73l34.77-49.33l219.02,77.69l112.83,228.77
					l-19.08,195.69L240.66,674.05L159.63,587.11z"/>
				<g class="st15">
					<defs>
						<path id="XMLID_65_" d="M159.63,587.11c92.09-26.49,88.22-125.77,44.02-145.77c-46.61-21.1-89.99,98.37-137.21,55.61
							c-28.21-25.54-21.98-83.12-10.51-169.42c6.88-51.8,22.95-168.34-54.95-210.73l34.77-49.33l219.02,77.69l112.83,228.77
							l-19.08,195.69L240.66,674.05L159.63,587.11z"/>
					</defs>
					
						<linearGradient id="XMLID_8_" gradientUnits="userSpaceOnUse" x1="949.9117" y1="-580.5857" x2="1269.3827" y2="-314.7854" gradientTransform="matrix(0 -1 1 0 617.776 1454.6814)">
						<stop  offset="0" style="stop-color:#FFFFFF"/>
						<stop  offset="1" style="stop-color:#FFFFFF;stop-opacity:0"/>
					</linearGradient>
					<use xlink:href="#XMLID_65_"  style="overflow:visible;fill:url(#XMLID_8_);"/>
					<clipPath id="XMLID_9_">
						<use xlink:href="#XMLID_65_"  style="overflow:visible;"/>
					</clipPath>
					<linearGradient id="SVGID_11_" gradientUnits="userSpaceOnUse" x1="10.597" y1="481.0797" x2="221.4326" y2="355.2408">
						<stop  offset="0" style="stop-color:#FFFFFF"/>
						<stop  offset="1" style="stop-color:#FFFFFF;stop-opacity:0"/>
					</linearGradient>
					<rect x="-31.96" y="4.16" class="st16" width="461.61" height="729.13"/>
					<linearGradient id="SVGID_12_" gradientUnits="userSpaceOnUse" x1="-48.2987" y1="488.9682" x2="183.3481" y2="468.2679">
						<stop  offset="0" style="stop-color:#A2A2A2"/>
						<stop  offset="1" style="stop-color:#FFFFFF;stop-opacity:0"/>
					</linearGradient>
					<path class="st17" d="M83.65,255.02c19.66,94.58-24.89,289.61,71.86,201.65l62.16,33.59L45.15,593.07L184.28,772.8
						l191.47-104.53l26.6-178.01l-21.7-201.85L265.66,167.26l-66.33-5.04"/>
				</g>
			</g>
			<g>
				<linearGradient id="SVGID_13_" gradientUnits="userSpaceOnUse" x1="21.0441" y1="460.4893" x2="101.021" y2="364.3634">
					<stop  offset="0" style="stop-color:#FFFFFF"/>
					<stop  offset="1" style="stop-color:#FFFFFF;stop-opacity:0"/>
				</linearGradient>
				<path class="st18" d="M66.44,496.96c-2.75-2.4-5.23-5.11-7.39-8.07c-2.14-2.98-3.93-6.2-5.5-9.52
					c-2.96-6.73-4.91-13.87-6.11-21.1c-1.26-7.23-1.76-14.56-1.99-21.87c-0.21-7.32-0.08-14.63,0.24-21.93
					c0.79-14.6,2.21-29.13,4.02-43.61c0.91-7.24,1.9-14.46,2.91-21.69c1.08-7.21,2.13-14.43,3.32-21.63l-2.34,21.75
					c-0.82,7.24-1.63,14.49-2.36,21.74c-0.7,7.25-1.5,14.49-2.1,21.75c-0.62,7.25-1.12,14.52-1.45,21.78
					c-0.75,14.51-0.79,29.12,1.26,43.47c1,7.17,2.77,14.25,5.49,20.95c1.42,3.33,3.05,6.57,5.04,9.61
					C61.51,491.58,63.83,494.4,66.44,496.96z"/>
			</g>
		</g>
		<linearGradient id="SVGID_14_" gradientUnits="userSpaceOnUse" x1="334.931" y1="280.6232" x2="793.8836" y2="123.9073">
			<stop  offset="0" style="stop-color:#A2A2A2"/>
			<stop  offset="1" style="stop-color:#FFFFFF;stop-opacity:0"/>
		</linearGradient>
		<path class="st19" d="M673-111.33c-61.5,35.99-126.11,199.51-49.79,288.26c98.81,114.9,71.75,231.47,125.17,239.36
			c84.19,12.43,123.77-341.64,88.03-450.57S734.28-147.19,673-111.33z"/>
		<linearGradient id="SVGID_15_" gradientUnits="userSpaceOnUse" x1="479.9345" y1="-74.2156" x2="39.4906" y2="337.2285">
			<stop  offset="0" style="stop-color:#A2A2A2"/>
			<stop  offset="1" style="stop-color:#FFFFFF;stop-opacity:0"/>
		</linearGradient>
		<path class="st20" d="M-84.1-92.6c94.84-80.45,203.54,172.18,236.73,319.09c45.15,199.82,142.82,141.99,213.23,174.47
			c93.36,43.07,57.21,194.91-70.24,190.02c-254.15-9.76-273.05,339.41-457.9,167.12c-184.85-172.29-212.26-566.46-88.21-597.15
			C-126.44,130.24-152.75-34.38-84.1-92.6z"/>
	</g>
</g>
<g id="DESIGNED_BY_FREEPIK">
</g>
</svg>
